<?xml version="1.0" encoding="utf-8"?>
<!-- Generator: Adobe Illustrator 16.0.0, SVG Export Plug-In . SVG Version: 6.00 Build 0)  -->
<!DOCTYPE svg PUBLIC "-//W3C//DTD SVG 1.1//EN" "http://www.w3.org/Graphics/SVG/1.1/DTD/svg11.dtd">
<svg version="1.1" id="Layer_1" xmlns="http://www.w3.org/2000/svg" xmlns:xlink="http://www.w3.org/1999/xlink" x="0px" y="0px"
	 width="64px" height="64px" viewBox="0 0 64 64" enable-background="new 0 0 64 64" xml:space="preserve">
<g>
	<linearGradient id="SVGID_1_" gradientUnits="userSpaceOnUse" x1="0" y1="32" x2="64" y2="32">
		<stop  offset="0" style="stop-color:#FFC200"/>
		<stop  offset="0.527" style="stop-color:#FFC000"/>
		<stop  offset="0.8225" style="stop-color:#FFB800"/>
		<stop  offset="1" style="stop-color:#FFAE00"/>
	</linearGradient>
	<circle fill="url(#SVGID_1_)" cx="32" cy="32" r="32"/>
	<g>
		<g>
			<path fill="#FFFFFF" d="M29.346,46.898V27.348c-3.638,2.793-6.087,4.189-7.348,4.189c-0.602,0-1.135-0.24-1.601-0.72
				c-0.466-0.479-0.698-1.035-0.698-1.665c0-0.73,0.229-1.268,0.688-1.611c0.458-0.344,1.268-0.788,2.428-1.332
				c1.733-0.816,3.119-1.676,4.157-2.578c1.038-0.902,1.958-1.912,2.761-3.029c0.802-1.117,1.325-1.805,1.568-2.063
				c0.243-0.258,0.702-0.387,1.375-0.387c0.759,0,1.368,0.294,1.826,0.881c0.458,0.587,0.688,1.396,0.688,2.428v24.6
				c0,2.879-0.981,4.318-2.943,4.318c-0.874,0-1.576-0.294-2.105-0.881C29.61,48.911,29.346,48.044,29.346,46.898z"/>
		</g>
	</g>
	<path fill="#FFFFFF" d="M32,61.356c-16.127,0-29.246-13.12-29.246-29.248S15.873,2.862,32,2.862s29.248,13.12,29.248,29.247
		S48.127,61.356,32,61.356z M32,3.756c-15.633,0-28.352,12.72-28.352,28.353c0,15.634,12.719,28.353,28.352,28.353
		c15.635,0,28.354-12.719,28.354-28.353C60.354,16.476,47.635,3.756,32,3.756z"/>
	<g opacity="0.8">
		<g>
			<g>
				<g>
					<path fill="#FFDF99" d="M13.521,15.366c-0.113,0.877-0.447,1.766-0.751,2.447c-0.147,0.341-0.297,0.627-0.397,0.835
						c-0.102,0.205-0.173,0.325-0.173,0.325s-0.307-0.219-0.612-0.662c-0.309-0.448-0.613-1.123-0.56-2.044
						c0.05-0.922,0.485-1.894,0.926-2.617c0.112-0.179,0.221-0.346,0.323-0.492c0.102-0.147,0.2-0.272,0.283-0.376
						c0.167-0.208,0.273-0.327,0.273-0.327s0.24,0.288,0.438,0.797c0.102,0.256,0.188,0.564,0.238,0.918
						C13.566,14.529,13.572,14.924,13.521,15.366z"/>
					<path fill="#FFDF99" d="M9.765,21.824c0.153,0.962,0.056,2-0.06,2.812c-0.028,0.204-0.059,0.392-0.091,0.561
						c-0.028,0.167-0.053,0.319-0.079,0.439c-0.052,0.25-0.091,0.396-0.091,0.396s-0.391-0.144-0.852-0.531
						c-0.229-0.191-0.476-0.447-0.694-0.78c-0.211-0.328-0.406-0.741-0.512-1.236c-0.226-0.999-0.06-2.149,0.186-3.029
						c0.118-0.443,0.26-0.817,0.365-1.08c0.105-0.266,0.186-0.418,0.186-0.418s0.085,0.058,0.218,0.175
						c0.132,0.116,0.313,0.296,0.501,0.534c0.187,0.24,0.38,0.539,0.544,0.898C9.549,20.922,9.692,21.344,9.765,21.824z"/>
					<path fill="#FFDF99" d="M7.848,29.017c0.447,0.984,0.664,2.108,0.832,2.993c0.041,0.222,0.066,0.43,0.097,0.615
						c0.034,0.185,0.056,0.35,0.076,0.487c0.036,0.274,0.047,0.438,0.047,0.438s-0.114-0.004-0.303-0.038
						c-0.194-0.034-0.461-0.097-0.77-0.221c-0.307-0.125-0.653-0.309-1.004-0.589c-0.339-0.284-0.669-0.661-0.96-1.168
						c-0.561-1.015-0.744-2.332-0.736-3.359c-0.004-0.256,0.012-0.496,0.026-0.711c0.017-0.214,0.032-0.407,0.053-0.565
						c0.045-0.313,0.083-0.5,0.083-0.5s0.435,0.155,0.959,0.566c0.261,0.205,0.557,0.475,0.832,0.814
						C7.353,28.117,7.627,28.528,7.848,29.017z"/>
					<path fill="#FFDF99" d="M8.238,36.522c0.819,0.858,1.454,1.931,1.957,2.775c0.059,0.109,0.117,0.213,0.171,0.312
						c0.057,0.099,0.11,0.194,0.161,0.283c0.1,0.177,0.184,0.337,0.253,0.472c0.137,0.269,0.218,0.43,0.218,0.43
						s-0.118,0.035-0.33,0.068c-0.206,0.034-0.51,0.065-0.874,0.049c-0.712-0.041-1.708-0.265-2.656-1.104
						c-0.946-0.839-1.64-2.133-2.007-3.224c-0.1-0.271-0.164-0.532-0.23-0.767c-0.062-0.237-0.114-0.445-0.148-0.62
						c-0.063-0.352-0.089-0.568-0.089-0.568s0.123,0.006,0.335,0.044c0.21,0.041,0.508,0.114,0.851,0.243
						c0.339,0.131,0.744,0.316,1.15,0.579c0.203,0.131,0.408,0.28,0.611,0.451C7.823,36.115,8.032,36.305,8.238,36.522z"/>
					<path fill="#FFDF99" d="M11.076,43.509c0.143,0.076,0.277,0.161,0.418,0.243c0.142,0.084,0.278,0.171,0.412,0.262
						c0.27,0.182,0.524,0.373,0.781,0.563c0.126,0.096,0.248,0.192,0.367,0.29c0.059,0.047,0.117,0.099,0.174,0.147
						c0.063,0.047,0.119,0.095,0.18,0.141c0.229,0.188,0.445,0.376,0.642,0.555c0.412,0.343,0.733,0.668,0.981,0.886
						c0.241,0.221,0.377,0.363,0.377,0.363s-0.108,0.078-0.31,0.185c-0.201,0.106-0.494,0.238-0.872,0.345
						c-0.377,0.105-0.845,0.187-1.363,0.165c-0.526-0.019-1.131-0.125-1.76-0.403c-1.275-0.547-2.44-1.659-3.195-2.662
						c-0.196-0.248-0.354-0.494-0.501-0.712c-0.144-0.223-0.273-0.419-0.363-0.589c-0.19-0.343-0.292-0.554-0.292-0.554
						s0.132-0.035,0.362-0.065c0.23-0.027,0.562-0.049,0.958-0.027c0.2,0.011,0.412,0.033,0.646,0.067
						c0.231,0.036,0.478,0.085,0.732,0.151c0.253,0.067,0.518,0.154,0.783,0.265C10.509,43.229,10.793,43.357,11.076,43.509z"/>
					<path fill="#FFDF99" d="M16.025,49.308c0.694,0.124,1.375,0.329,2.027,0.543c0.32,0.114,0.643,0.222,0.944,0.333
						c0.149,0.06,0.297,0.117,0.44,0.171c0.145,0.051,0.285,0.104,0.42,0.155c0.534,0.221,1.002,0.392,1.325,0.538
						c0.161,0.074,0.298,0.118,0.385,0.158c0.09,0.038,0.14,0.057,0.14,0.057s-0.075,0.121-0.235,0.304
						c-0.161,0.183-0.402,0.43-0.743,0.682c-0.335,0.24-0.765,0.482-1.314,0.66c-0.274,0.092-0.572,0.155-0.897,0.193
						c-0.322,0.035-0.684,0.054-1.062,0.021c-0.376-0.036-0.767-0.102-1.156-0.196c-0.379-0.106-0.76-0.236-1.136-0.385
						c-0.366-0.157-0.72-0.335-1.061-0.516c-0.335-0.187-0.643-0.389-0.935-0.584c-0.073-0.047-0.144-0.097-0.213-0.142
						c-0.067-0.051-0.134-0.101-0.198-0.15c-0.128-0.098-0.247-0.192-0.36-0.284c-0.23-0.184-0.43-0.348-0.586-0.499
						c-0.313-0.292-0.492-0.478-0.492-0.478s0.123-0.078,0.353-0.181c0.226-0.103,0.559-0.226,0.974-0.33
						c0.209-0.052,0.436-0.098,0.684-0.133c0.251-0.038,0.52-0.065,0.805-0.078c0.285-0.012,0.582-0.005,0.896,0.016
						C15.35,49.203,15.682,49.241,16.025,49.308z"/>
					<path fill="#FFDF99" d="M22.657,53.78c0.384-0.007,0.764,0.011,1.14,0.046c0.379,0.02,0.756,0.06,1.118,0.109
						c0.372,0.033,0.727,0.083,1.068,0.138c0.347,0.039,0.674,0.085,0.979,0.138c0.615,0.076,1.139,0.174,1.518,0.217
						c0.377,0.058,0.599,0.101,0.599,0.101s-0.047,0.144-0.157,0.374c-0.112,0.228-0.294,0.542-0.577,0.883
						c-0.139,0.171-0.308,0.349-0.504,0.523c-0.098,0.088-0.207,0.175-0.318,0.261c-0.113,0.081-0.237,0.162-0.366,0.239
						c-0.263,0.154-0.559,0.295-0.897,0.419c-0.336,0.122-0.705,0.2-1.12,0.26c-0.418,0.064-0.846,0.064-1.287,0.043
						c-0.444-0.014-0.882-0.085-1.32-0.173c-0.441-0.079-0.86-0.206-1.272-0.342c-0.411-0.126-0.791-0.291-1.149-0.45
						c-0.178-0.077-0.351-0.157-0.515-0.236c-0.159-0.085-0.311-0.167-0.454-0.248c-0.284-0.161-0.54-0.303-0.74-0.436
						c-0.401-0.269-0.633-0.44-0.633-0.44s0.114-0.103,0.337-0.247c0.221-0.146,0.551-0.333,0.975-0.509
						c0.418-0.172,0.944-0.351,1.543-0.473C21.213,53.863,21.906,53.771,22.657,53.78z"/>
				</g>
				<path fill="#FFDF99" d="M14.964,16.43c-0.813,0.291-1.521,0.93-2.012,1.495c-0.236,0.284-0.436,0.542-0.556,0.736
					c-0.127,0.193-0.196,0.313-0.196,0.313c0-0.001,0.358,0.132,0.899,0.167s1.269-0.013,2.023-0.338
					c0.751-0.331,1.415-0.848,1.904-1.28c0.122-0.109,0.232-0.21,0.329-0.304c0.098-0.094,0.186-0.173,0.253-0.245
					c0.141-0.139,0.219-0.228,0.219-0.228s-0.309-0.214-0.819-0.368c-0.255-0.076-0.567-0.14-0.912-0.144
					C15.758,16.233,15.365,16.279,14.964,16.43z"/>
				<path fill="#FFDF99" d="M11.625,22.539c-0.772,0.547-1.343,1.425-1.691,2.162c-0.089,0.186-0.16,0.36-0.226,0.519
					C9.646,25.38,9.6,25.524,9.563,25.643c-0.081,0.241-0.118,0.389-0.118,0.389s0.421,0.036,1.012-0.079
					c0.296-0.057,0.63-0.15,0.98-0.299c0.358-0.148,0.712-0.354,1.07-0.631c0.703-0.562,1.255-1.309,1.646-1.918
					c0.195-0.306,0.352-0.575,0.46-0.768c0.099-0.196,0.162-0.313,0.162-0.313s-0.098-0.033-0.274-0.067
					c-0.173-0.035-0.421-0.073-0.715-0.075c-0.297-0.006-0.643,0.024-1.014,0.12C12.402,22.098,12.014,22.269,11.625,22.539z"/>
				<path fill="#FFDF99" d="M10.023,29.249c-0.648,0.784-0.982,1.875-1.083,2.758c-0.025,0.219-0.052,0.428-0.058,0.613
					c-0.004,0.186-0.004,0.354-0.001,0.489c0.005,0.277,0.018,0.441,0.018,0.441s0.115-0.025,0.296-0.093
					c0.185-0.065,0.439-0.173,0.724-0.332c0.289-0.156,0.606-0.366,0.913-0.629c0.314-0.263,0.634-0.582,0.9-0.966
					c0.556-0.766,0.893-1.66,1.131-2.384c0.052-0.181,0.106-0.35,0.151-0.501c0.041-0.154,0.073-0.289,0.104-0.402
					c0.061-0.226,0.086-0.366,0.086-0.366s-0.459-0.038-1.089,0.105c-0.318,0.072-0.671,0.193-1.035,0.394
					C10.711,28.575,10.354,28.855,10.023,29.249z"/>
				<path fill="#FFDF99" d="M10.558,36.008c-0.383,1.021-0.326,2.258-0.096,3.194c0.024,0.119,0.047,0.232,0.077,0.34
					c0.034,0.108,0.064,0.209,0.095,0.306c0.061,0.194,0.121,0.363,0.172,0.505c0.05,0.144,0.106,0.251,0.139,0.325
					c0.033,0.076,0.054,0.117,0.054,0.117s0.105-0.066,0.267-0.199c0.161-0.133,0.38-0.332,0.611-0.59
					c0.479-0.53,0.988-1.295,1.274-2.276c0.285-0.98,0.296-1.999,0.285-2.791c-0.008-0.195-0.004-0.382-0.015-0.544
					c-0.009-0.164-0.024-0.308-0.034-0.428c-0.011-0.241-0.031-0.385-0.031-0.385s-0.122,0.028-0.318,0.097
					c-0.196,0.07-0.471,0.183-0.774,0.355c-0.309,0.176-0.625,0.409-0.932,0.732c-0.15,0.16-0.299,0.342-0.434,0.548
					C10.77,35.522,10.655,35.749,10.558,36.008z"/>
				<path fill="#FFDF99" d="M13.278,42.221c-0.005,0.147-0.008,0.297,0.006,0.443c0.014,0.147,0.031,0.295,0.059,0.444
					c0.046,0.294,0.116,0.59,0.216,0.871c0.049,0.142,0.098,0.281,0.153,0.417c0.03,0.068,0.056,0.137,0.083,0.206
					c0.033,0.064,0.064,0.127,0.096,0.193c0.127,0.255,0.261,0.5,0.395,0.726c0.287,0.435,0.55,0.811,0.772,1.051
					c0.213,0.247,0.351,0.387,0.351,0.387s0.084-0.104,0.2-0.296c0.119-0.191,0.271-0.471,0.416-0.817
					c0.145-0.345,0.274-0.753,0.377-1.22c0.098-0.464,0.142-0.968,0.121-1.514c-0.048-1.088-0.379-2.122-0.657-2.927
					c-0.075-0.196-0.135-0.385-0.201-0.548c-0.064-0.165-0.132-0.304-0.177-0.427c-0.098-0.241-0.166-0.38-0.166-0.38
					s-0.116,0.068-0.295,0.203c-0.179,0.136-0.42,0.337-0.672,0.614c-0.125,0.137-0.256,0.295-0.378,0.47
					c-0.117,0.173-0.229,0.368-0.33,0.58c-0.101,0.214-0.188,0.451-0.258,0.706C13.328,41.655,13.291,41.927,13.278,42.221z"/>
				<path fill="#FFDF99" d="M17.816,47.265c0.185,0.595,0.503,1.175,0.9,1.677c0.194,0.261,0.414,0.49,0.637,0.707
					c0.107,0.11,0.218,0.214,0.33,0.314c0.114,0.095,0.229,0.186,0.339,0.272c0.44,0.359,0.871,0.602,1.177,0.779
					c0.152,0.093,0.285,0.146,0.37,0.189c0.088,0.039,0.138,0.061,0.138,0.061s0.041-0.135,0.082-0.369s0.082-0.57,0.091-0.967
					c0.012-0.404-0.008-0.871-0.087-1.363c-0.041-0.24-0.088-0.5-0.156-0.762c-0.067-0.264-0.159-0.517-0.263-0.787
					c-0.428-1.053-1.083-1.97-1.618-2.67c-0.034-0.044-0.07-0.086-0.102-0.128c-0.031-0.042-0.064-0.083-0.097-0.124
					c-0.062-0.08-0.122-0.156-0.181-0.228c-0.117-0.142-0.23-0.259-0.312-0.368c-0.175-0.208-0.289-0.323-0.289-0.323
					s-0.098,0.107-0.235,0.298c-0.137,0.194-0.318,0.477-0.486,0.838c-0.081,0.179-0.161,0.38-0.229,0.597
					c-0.063,0.214-0.115,0.445-0.145,0.696c-0.031,0.248-0.047,0.518-0.028,0.794C17.679,46.671,17.73,46.962,17.816,47.265z"/>
				<path fill="#FFDF99" d="M16.496,11.886c-0.939,0.797-1.475,1.795-1.75,2.55c-0.068,0.193-0.127,0.366-0.169,0.524
					s-0.072,0.297-0.093,0.411c-0.045,0.227-0.058,0.36-0.058,0.36s0.13-0.048,0.347-0.146c0.109-0.05,0.238-0.109,0.386-0.183
					c0.146-0.071,0.312-0.153,0.486-0.246c0.706-0.372,1.59-0.893,2.407-1.587c0.815-0.699,1.449-1.464,1.937-2.074
					c0.124-0.15,0.229-0.296,0.326-0.425c0.1-0.125,0.186-0.234,0.253-0.33c0.141-0.188,0.213-0.306,0.213-0.306
					s-0.137-0.011-0.381-0.009c-0.123,0.002-0.273,0.007-0.444,0.016c-0.169,0.02-0.362,0.045-0.572,0.083
					c-0.213,0.034-0.438,0.091-0.673,0.163c-0.117,0.036-0.239,0.074-0.366,0.115c-0.12,0.049-0.242,0.1-0.369,0.155
					c-0.126,0.054-0.252,0.114-0.381,0.176c-0.123,0.07-0.247,0.142-0.372,0.217c-0.125,0.079-0.252,0.157-0.372,0.248
					C16.73,11.691,16.611,11.786,16.496,11.886z"/>
				<path fill="#FFDF99" d="M24.084,51.279c0.159,0.286,0.352,0.567,0.569,0.836c0.227,0.252,0.475,0.498,0.733,0.724
					c0.27,0.213,0.549,0.414,0.828,0.593c0.288,0.167,0.573,0.318,0.845,0.452c0.556,0.24,1.06,0.423,1.427,0.507
					c0.369,0.097,0.592,0.138,0.592,0.138s0.004-0.15-0.02-0.408c-0.022-0.255-0.073-0.616-0.171-1.033
					c-0.051-0.211-0.109-0.433-0.186-0.665c-0.037-0.113-0.077-0.23-0.123-0.349c-0.044-0.122-0.091-0.247-0.139-0.37
					c-0.102-0.25-0.217-0.501-0.352-0.746c-0.134-0.246-0.278-0.511-0.445-0.753c-0.665-0.989-1.479-1.767-2.134-2.368
					c-0.082-0.073-0.162-0.142-0.241-0.208c-0.074-0.071-0.148-0.137-0.217-0.197c-0.138-0.125-0.269-0.22-0.371-0.31
					c-0.207-0.179-0.339-0.273-0.339-0.273s-0.081,0.125-0.192,0.353c-0.111,0.225-0.252,0.549-0.364,0.957
					c-0.115,0.408-0.186,0.878-0.163,1.412C23.642,50.114,23.781,50.677,24.084,51.279z"/>
			</g>
		</g>
		<g>
			<g>
				<g>
					<path fill="#FFDF99" d="M48.891,16.71c0.803,0.28,1.503,0.905,1.985,1.456c0.237,0.278,0.43,0.534,0.549,0.723
						c0.125,0.19,0.19,0.308,0.19,0.308s-0.354,0.132-0.894,0.171c-0.538,0.043-1.265-0.002-2.01-0.316
						c-0.745-0.318-1.4-0.822-1.878-1.242c-0.12-0.104-0.229-0.202-0.323-0.295c-0.095-0.091-0.181-0.168-0.249-0.237
						c-0.136-0.137-0.21-0.224-0.21-0.224s0.308-0.212,0.813-0.371c0.255-0.077,0.564-0.145,0.905-0.151
						C48.108,16.525,48.494,16.566,48.891,16.71z"/>
					<path fill="#FFDF99" d="M52.242,22.682c0.766,0.537,1.334,1.399,1.68,2.128c0.084,0.181,0.158,0.353,0.222,0.51
						c0.063,0.158,0.107,0.3,0.146,0.418c0.077,0.238,0.114,0.383,0.114,0.383s-0.42,0.037-1.01-0.073
						c-0.295-0.055-0.628-0.147-0.978-0.294c-0.355-0.143-0.713-0.345-1.067-0.617c-0.698-0.55-1.245-1.286-1.634-1.883
						c-0.191-0.301-0.349-0.565-0.453-0.757c-0.102-0.192-0.16-0.309-0.16-0.309s0.099-0.032,0.272-0.067
						c0.174-0.036,0.42-0.073,0.716-0.079c0.294-0.006,0.639,0.022,1.011,0.114C51.47,22.25,51.855,22.417,52.242,22.682z"/>
					<path fill="#FFDF99" d="M53.897,29.282c0.646,0.775,0.979,1.848,1.081,2.715c0.025,0.218,0.051,0.422,0.057,0.606
						c0.005,0.184,0.005,0.347,0.002,0.483c-0.005,0.273-0.019,0.437-0.019,0.437s-0.111-0.026-0.295-0.094
						c-0.185-0.065-0.44-0.171-0.726-0.328c-0.286-0.152-0.604-0.359-0.912-0.617c-0.317-0.26-0.634-0.575-0.9-0.955
						c-0.554-0.751-0.893-1.628-1.127-2.342c-0.053-0.177-0.106-0.344-0.148-0.494c-0.046-0.15-0.076-0.284-0.105-0.397
						c-0.061-0.223-0.085-0.358-0.085-0.358s0.458-0.038,1.089,0.101c0.319,0.07,0.671,0.188,1.034,0.384
						C53.21,28.618,53.567,28.894,53.897,29.282z"/>
					<path fill="#FFDF99" d="M53.446,35.955c0.383,1.012,0.331,2.238,0.108,3.165c-0.027,0.117-0.049,0.23-0.078,0.336
						c-0.033,0.108-0.064,0.209-0.096,0.304c-0.059,0.192-0.12,0.358-0.171,0.5c-0.048,0.14-0.101,0.247-0.136,0.32
						c-0.032,0.074-0.052,0.114-0.052,0.114s-0.104-0.065-0.267-0.198c-0.163-0.132-0.381-0.327-0.614-0.588
						c-0.479-0.527-0.991-1.284-1.279-2.257c-0.292-0.973-0.304-1.976-0.296-2.758c0.009-0.193,0.002-0.377,0.015-0.538
						c0.008-0.163,0.022-0.305,0.031-0.422c0.013-0.238,0.032-0.378,0.032-0.378s0.121,0.027,0.318,0.094
						c0.197,0.07,0.471,0.179,0.775,0.35c0.308,0.175,0.625,0.406,0.932,0.727c0.151,0.158,0.302,0.34,0.436,0.545
						C53.231,35.473,53.35,35.701,53.446,35.955z"/>
					<path fill="#FFDF99" d="M50.824,42.142c0.005,0.143,0.006,0.295-0.007,0.441c-0.013,0.146-0.029,0.292-0.056,0.439
						c-0.047,0.292-0.113,0.589-0.215,0.865c-0.046,0.141-0.097,0.279-0.151,0.415c-0.028,0.071-0.056,0.138-0.081,0.202
						c-0.032,0.066-0.063,0.132-0.095,0.195c-0.126,0.255-0.26,0.499-0.393,0.722c-0.281,0.433-0.545,0.806-0.762,1.044
						c-0.214,0.245-0.35,0.384-0.35,0.384s-0.083-0.104-0.202-0.296c-0.119-0.189-0.274-0.468-0.418-0.814
						c-0.146-0.346-0.276-0.751-0.38-1.217c-0.097-0.463-0.142-0.962-0.128-1.509c0.044-1.081,0.37-2.106,0.646-2.904
						c0.072-0.196,0.134-0.383,0.199-0.544c0.063-0.165,0.129-0.301,0.175-0.423c0.095-0.239,0.163-0.376,0.163-0.376
						s0.117,0.066,0.296,0.2c0.179,0.135,0.422,0.338,0.672,0.613c0.127,0.136,0.258,0.294,0.377,0.467
						c0.119,0.177,0.234,0.368,0.335,0.581c0.101,0.214,0.189,0.445,0.257,0.701C50.771,41.579,50.809,41.848,50.824,42.142z"/>
					<path fill="#FFDF99" d="M46.368,47.205c-0.181,0.595-0.5,1.173-0.896,1.672c-0.19,0.263-0.41,0.491-0.629,0.706
						c-0.111,0.106-0.222,0.215-0.333,0.314c-0.113,0.096-0.226,0.186-0.336,0.272c-0.438,0.355-0.868,0.598-1.171,0.774
						c-0.151,0.092-0.282,0.144-0.37,0.189c-0.086,0.04-0.136,0.06-0.136,0.06s-0.041-0.134-0.082-0.369
						c-0.043-0.236-0.085-0.57-0.093-0.967c-0.012-0.405,0.005-0.871,0.083-1.361c0.04-0.241,0.088-0.501,0.156-0.761
						c0.065-0.265,0.155-0.517,0.258-0.786c0.425-1.051,1.073-1.962,1.608-2.665c0.032-0.042,0.069-0.082,0.102-0.125
						c0.033-0.042,0.063-0.083,0.096-0.125c0.061-0.081,0.123-0.156,0.18-0.226c0.116-0.144,0.228-0.259,0.31-0.367
						c0.174-0.207,0.289-0.321,0.289-0.321s0.096,0.105,0.233,0.297c0.139,0.194,0.32,0.477,0.485,0.835
						c0.084,0.181,0.164,0.38,0.229,0.598c0.066,0.212,0.118,0.445,0.151,0.694c0.03,0.249,0.047,0.516,0.023,0.794
						C46.507,46.614,46.455,46.904,46.368,47.205z"/>
					<path fill="#FFDF99" d="M40.359,50.995c-0.165,0.285-0.357,0.563-0.581,0.829c-0.229,0.25-0.479,0.491-0.742,0.714
						c-0.271,0.209-0.554,0.407-0.836,0.583c-0.288,0.163-0.575,0.31-0.851,0.441c-0.559,0.232-1.063,0.409-1.436,0.489
						c-0.365,0.091-0.59,0.13-0.59,0.13s-0.002-0.15,0.023-0.407c0.027-0.256,0.084-0.616,0.187-1.031
						c0.051-0.209,0.115-0.432,0.191-0.662c0.042-0.113,0.082-0.229,0.128-0.348c0.046-0.121,0.096-0.246,0.148-0.369
						c0.103-0.248,0.223-0.498,0.356-0.74c0.138-0.245,0.284-0.507,0.455-0.748c0.677-0.98,1.503-1.747,2.165-2.34
						c0.082-0.072,0.164-0.14,0.242-0.205c0.077-0.07,0.149-0.135,0.221-0.194c0.14-0.123,0.27-0.216,0.375-0.305
						c0.207-0.176,0.342-0.269,0.342-0.269s0.081,0.126,0.188,0.355c0.11,0.226,0.247,0.552,0.355,0.96
						c0.108,0.41,0.175,0.881,0.143,1.415C40.816,49.836,40.671,50.397,40.359,50.995z"/>
				</g>
				<path fill="#FFDF99" d="M50.334,15.646c0.104,0.866,0.428,1.742,0.725,2.411c0.145,0.337,0.29,0.619,0.387,0.823
					c0.104,0.203,0.17,0.318,0.17,0.318s0.309-0.217,0.619-0.658c0.309-0.443,0.615-1.112,0.569-2.021
					c-0.04-0.914-0.468-1.871-0.897-2.583c-0.109-0.176-0.215-0.339-0.315-0.482c-0.101-0.143-0.197-0.268-0.278-0.37
					c-0.163-0.205-0.267-0.323-0.267-0.323s-0.243,0.29-0.444,0.796c-0.101,0.253-0.191,0.557-0.246,0.909
					C50.299,14.821,50.288,15.212,50.334,15.646z"/>
				<path fill="#FFDF99" d="M54.103,21.965c-0.157,0.953-0.063,1.978,0.047,2.779c0.026,0.2,0.059,0.386,0.09,0.551
					c0.026,0.168,0.053,0.316,0.076,0.436c0.05,0.245,0.088,0.39,0.088,0.39s0.392-0.143,0.854-0.523
					c0.229-0.193,0.478-0.446,0.697-0.776c0.212-0.325,0.409-0.733,0.516-1.223c0.228-0.988,0.064-2.123-0.174-2.995
					c-0.115-0.436-0.257-0.806-0.362-1.068c-0.102-0.261-0.181-0.414-0.181-0.414s-0.088,0.061-0.22,0.175
					c-0.132,0.118-0.311,0.294-0.501,0.533c-0.187,0.236-0.381,0.534-0.548,0.89C54.319,21.074,54.176,21.492,54.103,21.965z"/>
				<path fill="#FFDF99" d="M56.074,29.051c-0.451,0.971-0.667,2.079-0.837,2.952c-0.04,0.22-0.065,0.422-0.097,0.606
					c-0.031,0.182-0.054,0.345-0.075,0.479c-0.036,0.271-0.047,0.434-0.047,0.434s0.115-0.005,0.309-0.039
					c0.188-0.032,0.457-0.094,0.764-0.218c0.309-0.12,0.654-0.304,1.005-0.581c0.34-0.275,0.669-0.648,0.959-1.15
					c0.561-1.001,0.746-2.302,0.741-3.32c0.005-0.254-0.011-0.491-0.027-0.704c-0.015-0.213-0.029-0.403-0.054-0.558
					c-0.042-0.312-0.079-0.498-0.079-0.498s-0.433,0.157-0.96,0.564c-0.261,0.202-0.558,0.47-0.835,0.807
					C56.569,28.16,56.293,28.566,56.074,29.051z"/>
				<path fill="#FFDF99" d="M55.767,36.469c-0.818,0.852-1.447,1.913-1.948,2.749c-0.057,0.105-0.116,0.208-0.169,0.306
					c-0.058,0.097-0.11,0.19-0.158,0.28c-0.102,0.176-0.184,0.334-0.251,0.467c-0.137,0.265-0.218,0.424-0.218,0.424
					s0.117,0.039,0.329,0.072c0.207,0.034,0.51,0.066,0.874,0.051c0.71-0.04,1.704-0.259,2.647-1.089
					c0.945-0.828,1.633-2.112,1.998-3.192c0.101-0.268,0.164-0.527,0.229-0.759c0.062-0.232,0.113-0.438,0.146-0.615
					c0.063-0.35,0.09-0.56,0.09-0.56s-0.126,0.004-0.335,0.042c-0.211,0.04-0.508,0.111-0.851,0.24
					c-0.339,0.129-0.743,0.311-1.149,0.57c-0.202,0.129-0.406,0.276-0.61,0.445C56.18,36.068,55.971,36.257,55.767,36.469z"/>
				<path fill="#FFDF99" d="M53.027,43.43c-0.144,0.076-0.277,0.159-0.419,0.242c-0.142,0.082-0.28,0.168-0.414,0.258
					c-0.267,0.18-0.519,0.371-0.775,0.557c-0.126,0.095-0.246,0.192-0.364,0.287c-0.061,0.051-0.116,0.1-0.176,0.147
					c-0.058,0.047-0.117,0.094-0.177,0.141c-0.229,0.184-0.442,0.373-0.639,0.55c-0.408,0.339-0.728,0.663-0.976,0.878
					c-0.238,0.221-0.372,0.36-0.372,0.36s0.108,0.078,0.308,0.186c0.201,0.105,0.493,0.237,0.872,0.345
					c0.374,0.106,0.841,0.188,1.358,0.169c0.522-0.019,1.126-0.122,1.753-0.397c1.271-0.539,2.434-1.645,3.183-2.641
					c0.194-0.248,0.354-0.492,0.5-0.709c0.144-0.22,0.272-0.417,0.361-0.588c0.188-0.339,0.288-0.548,0.288-0.548
					s-0.131-0.036-0.359-0.066c-0.232-0.029-0.563-0.05-0.959-0.031c-0.198,0.011-0.412,0.033-0.641,0.068
					c-0.235,0.032-0.479,0.082-0.733,0.15c-0.253,0.064-0.517,0.151-0.783,0.258C53.589,43.151,53.308,43.278,53.027,43.43z"/>
				<path fill="#FFDF99" d="M48.16,49.25c-0.692,0.121-1.371,0.326-2.024,0.538c-0.315,0.115-0.637,0.22-0.938,0.332
					c-0.15,0.06-0.297,0.114-0.438,0.171c-0.146,0.051-0.287,0.104-0.421,0.154c-0.532,0.22-1,0.39-1.321,0.535
					c-0.159,0.073-0.294,0.117-0.383,0.155c-0.088,0.038-0.138,0.059-0.138,0.059s0.077,0.121,0.234,0.304
					c0.159,0.184,0.4,0.431,0.741,0.68c0.334,0.245,0.768,0.487,1.309,0.665c0.278,0.092,0.573,0.155,0.897,0.193
					c0.323,0.035,0.684,0.056,1.061,0.023c0.376-0.033,0.764-0.098,1.151-0.196c0.379-0.104,0.761-0.234,1.134-0.383
					c0.365-0.156,0.718-0.333,1.058-0.513c0.335-0.186,0.644-0.388,0.935-0.58c0.071-0.048,0.144-0.097,0.212-0.144
					c0.066-0.051,0.133-0.099,0.196-0.147c0.127-0.099,0.249-0.191,0.363-0.283c0.227-0.183,0.427-0.347,0.579-0.497
					c0.313-0.292,0.493-0.478,0.493-0.478s-0.123-0.078-0.352-0.18c-0.227-0.103-0.559-0.229-0.974-0.333
					c-0.209-0.052-0.435-0.096-0.685-0.134c-0.249-0.038-0.517-0.067-0.803-0.079c-0.283-0.012-0.581-0.005-0.896,0.016
					C48.833,49.145,48.502,49.184,48.16,49.25z"/>
				<path fill="#FFDF99" d="M45.911,13.956c0.807,0.661,1.683,1.144,2.383,1.488c0.17,0.087,0.339,0.159,0.482,0.223
					c0.145,0.067,0.273,0.123,0.379,0.167c0.216,0.089,0.348,0.131,0.348,0.131s-0.017-0.131-0.066-0.358
					c-0.025-0.115-0.058-0.252-0.099-0.407c-0.05-0.157-0.109-0.327-0.18-0.519c-0.289-0.745-0.837-1.718-1.771-2.479
					c-0.114-0.092-0.232-0.184-0.352-0.268c-0.119-0.082-0.245-0.157-0.368-0.229c-0.122-0.07-0.243-0.139-0.368-0.2
					c-0.125-0.058-0.249-0.112-0.372-0.161c-0.123-0.051-0.242-0.099-0.361-0.138c-0.121-0.038-0.238-0.071-0.357-0.101
					c-0.113-0.031-0.224-0.059-0.332-0.082c-0.107-0.023-0.218-0.038-0.318-0.053c-0.203-0.027-0.387-0.048-0.55-0.056
					c-0.164-0.004-0.309-0.002-0.428,0c-0.233,0.008-0.363,0.024-0.363,0.024s0.073,0.114,0.211,0.298
					c0.067,0.09,0.152,0.198,0.249,0.319c0.093,0.126,0.203,0.266,0.322,0.409C44.479,12.555,45.104,13.293,45.911,13.956z"/>
				<path fill="#FFDF99" d="M41.755,53.515c-0.384-0.012-0.767,0.002-1.14,0.031c-0.382,0.016-0.758,0.05-1.122,0.095
					c-0.368,0.027-0.727,0.074-1.069,0.124c-0.344,0.034-0.674,0.077-0.979,0.125c-0.618,0.068-1.142,0.16-1.521,0.198
					c-0.377,0.053-0.6,0.094-0.6,0.094s0.044,0.145,0.154,0.375c0.108,0.23,0.284,0.547,0.562,0.892
					c0.138,0.172,0.304,0.352,0.498,0.529c0.098,0.089,0.204,0.178,0.317,0.264c0.113,0.082,0.232,0.165,0.363,0.244
					c0.259,0.158,0.554,0.302,0.89,0.431c0.334,0.126,0.703,0.209,1.117,0.274c0.418,0.07,0.844,0.075,1.284,0.06
					c0.445-0.008,0.886-0.074,1.323-0.157c0.444-0.073,0.867-0.196,1.276-0.325c0.416-0.122,0.798-0.281,1.159-0.437
					c0.178-0.074,0.351-0.152,0.515-0.229c0.161-0.083,0.313-0.164,0.457-0.242c0.288-0.157,0.546-0.296,0.748-0.427
					c0.404-0.263,0.638-0.432,0.638-0.432s-0.115-0.104-0.333-0.251c-0.223-0.148-0.549-0.34-0.967-0.521
					c-0.419-0.177-0.942-0.363-1.539-0.493C43.193,53.617,42.503,53.515,41.755,53.515z"/>
			</g>
		</g>
	</g>
	<g>
		<path fill="#FFFFFF" d="M32.121,16.686c2.207,0,4.352,0.309,6.398,0.875l0.755-3.642H24.728l0.768,3.707
			C27.61,17.019,29.831,16.686,32.121,16.686z"/>
		<path fill="#FFFFFF" d="M31.039,6.407c0,0.444,0.306,0.818,0.715,0.927c-0.435,1.597-1.335,4.7-1.741,4.7
			c-0.403,0-1.245-2.791-1.669-4.29c0.407-0.11,0.707-0.482,0.707-0.926c0-0.53-0.431-0.961-0.96-0.961
			c-0.531,0-0.961,0.432-0.961,0.961c0,0.504,0.388,0.918,0.881,0.957c-0.146,1.537-0.504,4.377-1.156,4.328
			c-0.64-0.05-2.201-2.189-3.03-3.39c0.254-0.171,0.423-0.465,0.423-0.796c0-0.53-0.43-0.96-0.96-0.96
			c-0.529,0-0.962,0.43-0.962,0.96s0.433,0.961,0.962,0.961c0.084,0,0.167-0.012,0.244-0.033l1.196,4.561h7.273h7.273l1.198-4.561
			c0.077,0.021,0.157,0.033,0.243,0.033c0.529,0,0.961-0.431,0.961-0.961s-0.432-0.96-0.961-0.96c-0.531,0-0.961,0.43-0.961,0.96
			c0,0.331,0.169,0.625,0.424,0.796c-0.83,1.201-2.39,3.339-3.031,3.39c-0.651,0.049-1.01-2.791-1.155-4.328
			c0.492-0.039,0.881-0.453,0.881-0.957c0-0.53-0.431-0.961-0.96-0.961c-0.53,0-0.962,0.432-0.962,0.961
			c0,0.443,0.301,0.815,0.706,0.926c-0.423,1.499-1.265,4.29-1.665,4.29c-0.407,0-1.31-3.103-1.744-4.7
			c0.409-0.108,0.715-0.482,0.715-0.927c0-0.53-0.432-0.961-0.962-0.961S31.039,5.876,31.039,6.407"/>
	</g>
</g>
</svg>
