<?xml version="1.0" encoding="utf-8"?>
<!-- Generator: Adobe Illustrator 16.0.0, SVG Export Plug-In . SVG Version: 6.00 Build 0)  -->
<!DOCTYPE svg PUBLIC "-//W3C//DTD SVG 1.1//EN" "http://www.w3.org/Graphics/SVG/1.1/DTD/svg11.dtd">
<svg version="1.1" id="Layer_1" xmlns="http://www.w3.org/2000/svg" xmlns:xlink="http://www.w3.org/1999/xlink" x="0px" y="0px"
	 width="64px" height="64px" viewBox="0 0 64 64" enable-background="new 0 0 64 64" xml:space="preserve">
<g>
	<linearGradient id="SVGID_1_" gradientUnits="userSpaceOnUse" x1="0" y1="32" x2="64" y2="32">
		<stop  offset="0" style="stop-color:#1C75BC"/>
		<stop  offset="0.3547" style="stop-color:#1E73BB"/>
		<stop  offset="0.5538" style="stop-color:#276BB6"/>
		<stop  offset="0.7144" style="stop-color:#345DAE"/>
		<stop  offset="0.8545" style="stop-color:#484AA2"/>
		<stop  offset="0.9799" style="stop-color:#613294"/>
		<stop  offset="1" style="stop-color:#662D91"/>
	</linearGradient>
	<circle fill="url(#SVGID_1_)" cx="32" cy="32" r="32"/>
	<g>
		<g>
			<path fill="#FFFFFF" d="M28.745,41.376H39.96c1.117,0,1.969,0.229,2.557,0.688c0.587,0.458,0.881,1.082,0.881,1.869
				c0,0.702-0.233,1.296-0.698,1.783c-0.466,0.487-1.171,0.73-2.116,0.73H24.771c-1.074,0-1.912-0.297-2.514-0.892
				c-0.602-0.594-0.902-1.292-0.902-2.095c0-0.516,0.193-1.199,0.58-2.052c0.387-0.852,0.809-1.521,1.268-2.009
				c1.905-1.977,3.624-3.67,5.156-5.081c1.532-1.411,2.628-2.338,3.287-2.782c1.174-0.831,2.152-1.665,2.933-2.503
				c0.78-0.838,1.375-1.697,1.783-2.578s0.612-1.744,0.612-2.589c0-0.917-0.219-1.736-0.655-2.46
				c-0.437-0.723-1.031-1.285-1.783-1.687c-0.752-0.401-1.572-0.602-2.46-0.602c-1.876,0-3.352,0.824-4.426,2.471
				c-0.144,0.215-0.383,0.802-0.72,1.762c-0.337,0.96-0.716,1.697-1.139,2.213c-0.423,0.516-1.042,0.773-1.858,0.773
				c-0.716,0-1.311-0.236-1.783-0.709s-0.709-1.117-0.709-1.934c0-0.988,0.222-2.02,0.666-3.094
				c0.444-1.074,1.106-2.048,1.987-2.922c0.881-0.874,1.998-1.579,3.352-2.116s2.939-0.806,4.759-0.806
				c2.191,0,4.061,0.344,5.607,1.031c1.002,0.458,1.883,1.089,2.643,1.891c0.759,0.802,1.35,1.729,1.772,2.782
				c0.422,1.053,0.634,2.145,0.634,3.276c0,1.776-0.44,3.391-1.321,4.845c-0.881,1.454-1.78,2.593-2.696,3.416
				c-0.917,0.824-2.453,2.116-4.608,3.878c-2.156,1.762-3.635,3.13-4.437,4.104C29.454,40.366,29.103,40.832,28.745,41.376z"/>
		</g>
	</g>
	<path fill="#FFFFFF" d="M32,61.356c-16.127,0-29.248-13.12-29.248-29.248S15.873,2.862,32,2.862s29.247,13.12,29.247,29.247
		S48.127,61.356,32,61.356z M32,3.756c-15.634,0-28.354,12.72-28.354,28.353c0,15.634,12.72,28.353,28.354,28.353
		c15.633,0,28.353-12.719,28.353-28.353C60.353,16.476,47.633,3.756,32,3.756z"/>
</g>
</svg>
