<?xml version="1.0" encoding="utf-8"?>
<!-- Generator: Adobe Illustrator 16.0.0, SVG Export Plug-In . SVG Version: 6.00 Build 0)  -->
<!DOCTYPE svg PUBLIC "-//W3C//DTD SVG 1.1//EN" "http://www.w3.org/Graphics/SVG/1.1/DTD/svg11.dtd">
<svg version="1.1" id="Layer_1" xmlns="http://www.w3.org/2000/svg" xmlns:xlink="http://www.w3.org/1999/xlink" x="0px" y="0px"
	 width="64px" height="64px" viewBox="0 0 64 64" enable-background="new 0 0 64 64" xml:space="preserve">
<g>
	<linearGradient id="SVGID_1_" gradientUnits="userSpaceOnUse" x1="0" y1="32" x2="64" y2="32">
		<stop  offset="0" style="stop-color:#FF6651"/>
		<stop  offset="0.4241" style="stop-color:#FF644F"/>
		<stop  offset="0.6621" style="stop-color:#FF5B48"/>
		<stop  offset="0.8535" style="stop-color:#FF4E3D"/>
		<stop  offset="1" style="stop-color:#FF3D2F"/>
	</linearGradient>
	<circle fill="url(#SVGID_1_)" cx="32" cy="32" r="32"/>
	<g>
		<g>
			<path fill="#FFFFFF" d="M30.979,27.433c1.317,0,2.453-0.387,3.405-1.16c0.952-0.773,1.429-1.883,1.429-3.33
				c0-1.103-0.38-2.052-1.139-2.847c-0.759-0.795-1.783-1.192-3.072-1.192c-0.874,0-1.594,0.122-2.159,0.365
				c-0.566,0.244-1.014,0.566-1.343,0.967c-0.33,0.401-0.641,0.917-0.935,1.547c-0.294,0.63-0.563,1.225-0.806,1.783
				c-0.144,0.301-0.401,0.537-0.773,0.709c-0.373,0.172-0.802,0.258-1.289,0.258c-0.573,0-1.1-0.232-1.579-0.698
				c-0.48-0.465-0.72-1.085-0.72-1.858c0-0.745,0.226-1.529,0.677-2.353c0.451-0.823,1.11-1.607,1.977-2.353
				c0.866-0.745,1.944-1.343,3.233-1.794s2.729-0.677,4.318-0.677c1.389,0,2.657,0.19,3.803,0.569
				c1.146,0.38,2.141,0.928,2.986,1.644c0.845,0.716,1.482,1.547,1.912,2.492s0.645,1.962,0.645,3.051
				c0,1.433-0.312,2.661-0.935,3.685c-0.623,1.024-1.515,2.023-2.675,2.997c1.117,0.602,2.059,1.289,2.825,2.063
				c0.766,0.773,1.343,1.629,1.729,2.567c0.387,0.938,0.58,1.952,0.58,3.04c0,1.304-0.262,2.564-0.784,3.781
				c-0.523,1.218-1.293,2.303-2.31,3.255c-1.017,0.953-2.224,1.697-3.62,2.234s-2.94,0.806-4.63,0.806
				c-1.719,0-3.259-0.308-4.619-0.924c-1.361-0.616-2.481-1.386-3.362-2.31s-1.547-1.88-1.998-2.868s-0.677-1.805-0.677-2.449
				c0-0.831,0.269-1.5,0.806-2.009c0.537-0.508,1.207-0.763,2.009-0.763c0.401,0,0.788,0.118,1.16,0.354
				c0.372,0.236,0.616,0.52,0.73,0.849c0.745,1.991,1.543,3.47,2.396,4.437c0.852,0.967,2.052,1.45,3.599,1.45
				c0.888,0,1.744-0.218,2.567-0.655c0.823-0.437,1.504-1.085,2.041-1.944s0.806-1.854,0.806-2.986c0-1.676-0.458-2.99-1.375-3.942
				c-0.917-0.952-2.191-1.429-3.824-1.429c-0.287,0-0.73,0.029-1.332,0.086c-0.602,0.058-0.988,0.086-1.16,0.086
				c-0.788,0-1.396-0.197-1.826-0.591c-0.43-0.394-0.645-0.941-0.645-1.644c0-0.688,0.258-1.242,0.773-1.665
				c0.516-0.422,1.282-0.634,2.299-0.634H30.979z"/>
		</g>
	</g>
	<path fill="#FFFFFF" d="M31.999,61.356c-16.127,0-29.247-13.12-29.247-29.248S15.872,2.862,31.999,2.862
		c16.128,0,29.247,13.12,29.247,29.247S48.127,61.356,31.999,61.356z M31.999,3.756c-15.634,0-28.353,12.72-28.353,28.353
		c0,15.634,12.719,28.353,28.353,28.353s28.353-12.719,28.353-28.353C60.352,16.476,47.633,3.756,31.999,3.756z"/>
</g>
</svg>
