<?xml version="1.0" encoding="utf-8"?>
<!-- Generator: Adobe Illustrator 16.0.0, SVG Export Plug-In . SVG Version: 6.00 Build 0)  -->
<!DOCTYPE svg PUBLIC "-//W3C//DTD SVG 1.1//EN" "http://www.w3.org/Graphics/SVG/1.1/DTD/svg11.dtd">
<svg version="1.1" id="Layer_1" xmlns="http://www.w3.org/2000/svg" xmlns:xlink="http://www.w3.org/1999/xlink" x="0px" y="0px"
	 width="64px" height="64px" viewBox="0 0 64 64" enable-background="new 0 0 64 64" xml:space="preserve">
<g>
	<linearGradient id="SVGID_1_" gradientUnits="userSpaceOnUse" x1="0" y1="32" x2="64" y2="32">
		<stop  offset="0" style="stop-color:#00B1C9"/>
		<stop  offset="0.4273" style="stop-color:#00AFC7"/>
		<stop  offset="0.6672" style="stop-color:#00A6C0"/>
		<stop  offset="0.86" style="stop-color:#0099B5"/>
		<stop  offset="1" style="stop-color:#0089A8"/>
	</linearGradient>
	<circle fill="url(#SVGID_1_)" cx="32" cy="32" r="32"/>
	<g>
		<g>
			<path fill="#FFFFFF" d="M33.081,43.718v-3.996H22.296c-1.361,0-2.381-0.308-3.062-0.924c-0.681-0.616-1.021-1.454-1.021-2.514
				c0-0.272,0.05-0.548,0.15-0.827c0.1-0.279,0.25-0.573,0.451-0.881c0.2-0.308,0.408-0.605,0.623-0.892
				c0.215-0.286,0.479-0.637,0.795-1.053L31.62,17.399c0.745-1.002,1.357-1.729,1.837-2.181c0.479-0.451,1.056-0.677,1.729-0.677
				c2.177,0,3.266,1.246,3.266,3.738v16.629h0.924c1.103,0,1.987,0.15,2.653,0.451s0.999,0.96,0.999,1.977
				c0,0.831-0.272,1.436-0.816,1.815c-0.544,0.38-1.361,0.569-2.449,0.569h-1.311v3.996c0,1.103-0.244,1.923-0.73,2.46
				c-0.487,0.537-1.139,0.806-1.955,0.806c-0.802,0-1.45-0.276-1.944-0.827S33.081,44.792,33.081,43.718z M23.843,34.909h9.238
				V22.427L23.843,34.909z"/>
		</g>
	</g>
	<path fill="#FFFFFF" d="M31.999,61.356c-16.127,0-29.246-13.12-29.246-29.248S15.872,2.862,31.999,2.862
		c16.128,0,29.249,13.12,29.249,29.247S48.127,61.356,31.999,61.356z M31.999,3.756c-15.633,0-28.352,12.72-28.352,28.353
		c0,15.634,12.719,28.353,28.352,28.353c15.634,0,28.354-12.719,28.354-28.353C60.354,16.476,47.633,3.756,31.999,3.756z"/>
</g>
</svg>
