<?xml version="1.0" encoding="utf-8"?>
<!-- Generator: Adobe Illustrator 16.0.0, SVG Export Plug-In . SVG Version: 6.00 Build 0)  -->
<!DOCTYPE svg PUBLIC "-//W3C//DTD SVG 1.1//EN" "http://www.w3.org/Graphics/SVG/1.1/DTD/svg11.dtd">
<svg version="1.1" id="Layer_1" xmlns="http://www.w3.org/2000/svg" xmlns:xlink="http://www.w3.org/1999/xlink" x="0px" y="0px"
	 width="64px" height="64px" viewBox="0 0 64 64" enable-background="new 0 0 64 64" xml:space="preserve">
<g>
	<linearGradient id="SVGID_1_" gradientUnits="userSpaceOnUse" x1="0" y1="32" x2="64" y2="32">
		<stop  offset="0" style="stop-color:#00AFA1"/>
		<stop  offset="0.4241" style="stop-color:#00AD9F"/>
		<stop  offset="0.6621" style="stop-color:#00A596"/>
		<stop  offset="0.8535" style="stop-color:#009889"/>
		<stop  offset="1" style="stop-color:#008878"/>
	</linearGradient>
	<circle fill="url(#SVGID_1_)" cx="32" cy="32" r="32"/>
	<g>
		<g>
			<path fill="#FFFFFF" d="M39.293,20.257H29.088l-1.225,6.961c2.034-1.088,3.91-1.633,5.629-1.633c1.375,0,2.66,0.258,3.856,0.773
				c1.196,0.516,2.245,1.229,3.147,2.138c0.902,0.91,1.611,1.987,2.127,3.233s0.773,2.585,0.773,4.018
				c0,2.077-0.466,3.968-1.396,5.672c-0.931,1.705-2.274,3.058-4.028,4.061c-1.755,1.002-3.778,1.504-6.069,1.504
				c-2.564,0-4.645-0.473-6.241-1.418c-1.597-0.945-2.729-2.03-3.395-3.255s-0.999-2.295-0.999-3.212
				c0-0.559,0.232-1.088,0.698-1.59c0.465-0.501,1.049-0.752,1.751-0.752c1.203,0,2.098,0.695,2.686,2.084
				c0.573,1.275,1.346,2.267,2.32,2.976c0.974,0.709,2.063,1.063,3.266,1.063c1.103,0,2.069-0.286,2.9-0.859
				c0.831-0.573,1.472-1.36,1.923-2.363c0.451-1.002,0.677-2.141,0.677-3.416c0-1.375-0.244-2.549-0.73-3.523
				c-0.487-0.974-1.139-1.701-1.955-2.181c-0.816-0.479-1.726-0.72-2.729-0.72c-1.232,0-2.113,0.15-2.643,0.451
				c-0.53,0.301-1.293,0.827-2.288,1.579c-0.996,0.752-1.815,1.128-2.46,1.128c-0.702,0-1.325-0.254-1.869-0.763
				c-0.544-0.508-0.816-1.085-0.816-1.729c0-0.071,0.079-0.559,0.236-1.461l1.805-10.291c0.2-1.231,0.573-2.127,1.117-2.686
				c0.544-0.559,1.432-0.838,2.664-0.838h11.344c2.234,0,3.352,0.853,3.352,2.557c0,0.745-0.272,1.347-0.816,1.805
				C41.155,20.028,40.353,20.257,39.293,20.257z"/>
		</g>
	</g>
	<path fill="#FFFFFF" d="M32,61.356c-16.127,0-29.248-13.12-29.248-29.248S15.873,2.862,32,2.862s29.248,13.12,29.248,29.247
		S48.127,61.356,32,61.356z M32,3.756c-15.633,0-28.354,12.72-28.354,28.353c0,15.634,12.721,28.353,28.354,28.353
		s28.354-12.719,28.354-28.353C60.354,16.476,47.633,3.756,32,3.756z"/>
</g>
</svg>
