<svg xmlns="http://www.w3.org/2000/svg" viewBox="5 6 39 38">
    <g>
        <path fill='#6b7280' d="M28.5,42H19V39.5a.5.5,0,0,0-1,0V42H15V39.5a.5.5,0,0,0-1,0V42H11V39.5a.5.5,0,0,0-1,0V42H7.5a.5.5,0,0,1-.5-.5V34H27a.5.5,0,0,0,0-1H7.1L11.52,9A1.5,1.5,0,0,1,12.94,8H35.06a1.5,1.5,0,0,1,1.41.96l4.54,23.63a.5.5,0,0,0,.49.41.5.5,0,0,0,.4-.59L37.43,8.71A2.5,2.5,0,0,0,35.06,7H12.94a2.5,2.5,0,0,0-2.39,1.77L6,33.41V41.5A1.5,1.5,0,0,0,7.5,43h21a.5.5,0,0,0,0-1Z" />
        <path fill="#ff6c2c" d="M42,36.5H36.5V31a.5.5,0,0,0-.5-.5A6.5,6.5,0,1,0,42.5,37,.5.5,0,0,0,42,36.5Zm-6,6a5.5,5.5,0,0,1-.5-10.98V37a.5.5,0,0,0,.5.5h5.48A5.5,5.5,0,0,1,36,42.5Z" />
    </g>
</svg>