<svg width="48" height="48" viewBox="0 0 48 48" fill="none" xmlns="http://www.w3.org/2000/svg">
    <path fill='#6b7280' d="M26.59473,38H6.90527a1.88954,1.88954,0,0,1-1.44336-.59863.82469.82469,0,0,1-.19726-.68457C6.53125,30.33887,14.92871,29,21.75,29a33.031,33.031,0,0,1,9.41992,1.15723.50015.50015,0,1,0,.291-.957A34.02822,34.02822,0,0,0,21.75,28C11.43066,28,5.3916,30.94629,4.28418,36.52148a1.80376,1.80376,0,0,0,.4043,1.51368A2.86458,2.86458,0,0,0,6.90527,39H26.59473a.5.5,0,0,0,0-1Z" />
    <path fill='#6b7280' d="M31.33368,24.16321l-.00067.00085a.49776.49776,0,0,0-.12866.363,9.32289,9.32289,0,0,0,.04663.18549.49678.49678,0,0,0,.11609.15734l.00012.00019a.49763.49763,0,0,0,.16467.09857l.0033.002a18.8892,18.8892,0,0,1,7.92089,5.35352.50006.50006,0,1,0,.75977-.65039,19.82027,19.82027,0,0,0-7.6908-5.388,12.66862,12.66862,0,0,0-.45178-16.12177.49984.49984,0,1,0-.74023.67188,11.63572,11.63572,0,0,1,.00183,15.32586Z" />
    <path fill='#6b7280' d="M21.75,25a9,9,0,1,0-9-9A9.00984,9.00984,0,0,0,21.75,25Zm0-17a8,8,0,1,1-8,8A8.00917,8.00917,0,0,1,21.75,8Z" />
    <path fill='#ff6c2c' d="M41.55566,32.94238A1.48945,1.48945,0,0,0,40.5,32.50879h-.0166l-4.05078.0459a.46983.46983,0,0,1-.36914-.15723l-.40332-.42676a1.50726,1.50726,0,0,0-1.0918-.4707H31.501A1.50331,1.50331,0,0,0,30,33.001v5.998A1.50331,1.50331,0,0,0,31.501,40.5h8.99609A1.50414,1.50414,0,0,0,42,38.99707V34.00781A1.49122,1.49122,0,0,0,41.55566,32.94238ZM41,38.99707a.50347.50347,0,0,1-.50293.50293H31.501A.50138.50138,0,0,1,31,38.999V33.001a.50138.50138,0,0,1,.501-.501h3.06738a.49858.49858,0,0,1,.36426.15723l.40429.42773a1.36789,1.36789,0,0,0,1.10645.46973l4.05176-.0459a.50015.50015,0,0,1,.50488.499Z" />
</svg>