<svg xmlns="http://www.w3.org/2000/svg" width="641" height="640" viewBox="0 0 152 154">
    <path d="m74.8 14.5c1.8-4.9 3.3-9.7 5.3-14.5 3.2 6.8 5.2 14.2 8.4 20.9 7.8 3.1 16.3 4.4 24.3 7.3-17 8.5-34.4 16.7-51.7 24.8 4.3-13 9.1-25.7 13.7-38.5m-29.3 14.6c7.8-4.2 15.5-8.8 23.3-13-6.3 19.2-13.4 38.2-19.8 57.4-7-13.2-13.1-26.9-19.7-40.2-2.1-4.5-4.5-8.8-6.3-13.4 7.8 2.6 14.9 6.9 22.5 9.2m34.6 20.2c17.4-8.5 34.8-17 52.3-25.4-2.8 7.3-6.1 14.3-9.2 21.5 4.1 7.6 9 14.8 12.8 22.6-18.8-5.9-37.4-12.2-55.9-18.7m-52.5-9.2c5.2 9.8 9.7 20.1 14.5 30 3.3 6.9 6.8 13.7 9.8 20.7-17.3-6-34.7-12.2-51.9-18.7 6.8-3.1 14-5.2 20.8-8.1 2.3-8 4.6-15.9 6.8-23.9m68.9 19.1c14.5 4.7 28.9 10 43.4 14.9 4.6 1.7 9.5 3 14 5.2-7.6 3-15.2 5.9-22.7 8.8-2.8 8.6-4.7 17.6-7.6 26.2-5.9-10.9-11-22.2-16.5-33.2-3.6-7.2-7.4-14.5-10.6-21.9m-.6 37.3c1.9-5.5 3.5-11 5.8-16.4 2.6 4.6 4.8 9.4 7.2 14.1 6 12.7 12.5 25 18.3 37.7-7.2-2.9-14.3-6.2-21.6-9.2-7.6 4.1-14.8 8.9-22.6 12.8 4-13.2 8.7-26 12.9-39m-79.5-12.2c16.4 5.1 32.4 11.2 48.6 16.6 2.4.8 4.9 1.7 7.1 2.9-17.5 8.1-34.8 16.9-52.5 24.7 2.9-7.1 6.4-14 9.2-21.2-3.4-8-8.6-15.2-12.4-23m34.7 33.8c13.3-6.4 26.4-13.2 39.8-19.3-3.6 11.9-8.2 23.7-12.1 35.6-2.3 6.3-4.2 12.9-6.8 19.1-3.3-6.9-5.6-14.3-8.7-21.3-8.3-3.1-16.9-4.8-25.3-7.1 3.9-3 8.8-4.6 13.1-7" fill="#ff6c2c" />
</svg>