<svg width="48" height="48" viewBox="0 0 48 48" fill="none" xmlns="http://www.w3.org/2000/svg">
    <path fill='#6b7280' d="M24,6C13.90625,6,6,9.7334,6,14.5S13.90625,23,24,23c7.98572,0,14.58466-2.34106,17-5.67761V24.167c0,4.06543-7.78516,7.5-17,7.5s-17-3.43457-17-7.5v-.66015a.5.5,0,0,0-1,0V33.5C6,38.2666,13.90625,42,24,42s18-3.7334,18-8.5v-19C42,9.7334,34.09375,6,24,6Zm0,16c-9.21484,0-17-3.43457-17-7.5S14.78516,7,24,7s17,3.43457,17,7.5S33.21484,22,24,22Z" />
    <path fill='#ff6c2c' d="M41,33.5c0,4.06543-7.78516,7.5-17,7.5S7,37.56543,7,33.5V26.98938C9.41534,30.32593,16.01428,32.667,24,32.667s14.58466-2.34106,17-5.67761Z" />
</svg>