<svg xmlns="http://www.w3.org/2000/svg" width="100" height="100" viewBox="0 0 50 50">
    <g>
        <path d="M 19.00123 31.962506 L 20.999808 31.962506 L 20.999808 36.997716 L 19.00123 36.997716 Z M 19.00123 31.962506 " style="fill: none; stroke: #6b7280; stroke-linecap: round; stroke-linejoin: round; stroke-miterlimit: 1.5; stroke-opacity: 1; stroke-width: 1.06" transform="matrix(1.04762,0,0,0.831644,-3.2381,6.84827)" />
        <path d="M 18.998386 31.962506 L 21.000692 31.962506 L 21.000692 36.997716 L 18.998386 36.997716 Z M 18.998386 31.962506 " style="fill: none; stroke: #6b7280; stroke-linecap: round; stroke-linejoin: round; stroke-miterlimit: 1.5; stroke-opacity: 1; stroke-width: 1.06" transform="matrix(1.04762,0,0,0.831644,0.95238,6.84827)" />
        <path d="M 18.99927 31.962506 L 21.001576 31.962506 L 21.001576 36.997716 L 18.99927 36.997716 Z M 18.99927 31.962506 " style="fill: none; stroke: #6b7280; stroke-linecap: round; stroke-linejoin: round; stroke-miterlimit: 1.5; stroke-opacity: 1; stroke-width: 1.06" transform="matrix(1.04762,0,0,0.831644,5.14286,6.84827)" />
        <path d="M 19.000154 31.962506 L 20.998732 31.962506 L 20.998732 36.997716 L 19.000154 36.997716 Z M 19.000154 31.962506 " style="fill: none; stroke: #6b7280; stroke-linecap: round; stroke-linejoin: round; stroke-miterlimit: 1.5; stroke-opacity: 1; stroke-width: 1.06" transform="matrix(1.04762,0,0,0.831644,9.33334,6.84827)" />
        <path d="M 15.99923 35.499776 C 15.99923 36.327547 15.328064 36.998713 14.500293 36.998713 C 13.672522 36.998713 13.001356 36.327547 13.001356 35.499776 C 13.001356 34.672004 13.672522 34.000839 14.500293 34.000839 C 15.328064 34.000839 15.99923 34.672004 15.99923 35.499776 Z M 15.99923 35.499776 " style="fill: none; stroke: #6b7280; stroke-linecap: round; stroke-linejoin: round; stroke-miterlimit: 1.5; stroke-opacity: 1; stroke-width: 0.72" transform="matrix(1.396823,0,0,1.396823,-7.777783,-14.063472)" />
        <path d="M 15.99866 35.499776 C 15.99866 36.327547 15.327494 36.998713 14.499723 36.998713 C 13.671952 36.998713 13.000786 36.327547 13.000786 35.499776 C 13.000786 34.672004 13.671952 34.000839 14.499723 34.000839 C 15.327494 34.000839 15.99866 34.672004 15.99866 35.499776 Z M 15.99866 35.499776 " style="fill: none; stroke: #6b7280; stroke-linecap: round; stroke-linejoin: round; stroke-miterlimit: 1.5; stroke-opacity: 1; stroke-width: 0.72" transform="matrix(1.396823,0,0,1.396823,15.269888,-14.063472)" />
        <path d="M 42.000084 25.500057 C 42.000084 36.268011 33.268001 45.000095 22.500046 45.000095 C 11.732092 45.000095 3.000008 36.268011 3.000008 25.500057 C 3.000008 14.732102 11.732092 6.000019 22.500046 6.000019 C 33.268001 6.000019 42.000084 14.732102 42.000084 25.500057 Z M 42.000084 25.500057 " style="fill: none; stroke: #6b7280; stroke-linecap: round; stroke-linejoin: round; stroke-miterlimit: 1.5; stroke-opacity: 1; stroke-width: 0.89" transform="matrix(1.128203,0,0,1.128203,-1.384618,-4.769239)" />
        <path d="M 22.07102 23.338909 C 22.07102 23.338909 24.389711 13.692194 25.224359 10.210897 C 25.251043 10.092468 25.359907 10.009462 25.483767 10.014125 C 25.607626 10.018789 25.707813 10.106635 25.728122 10.229078 C 26.313785 13.721644 27.926663 23.337346 27.926663 23.337346 C 27.975664 23.553362 27.998218 23.774219 27.999222 23.997969 C 27.999702 25.654783 26.656381 27.000361 24.999567 27.000841 C 23.342753 27.001321 21.998651 25.654576 22.001595 23.999238 C 22.002066 23.772063 22.024559 23.55032 22.07102 23.338909 Z M 22.07102 23.338909 " style="fill: none; stroke: #6b7280; stroke-linecap: round; stroke-linejoin: round; stroke-miterlimit: 1.5; stroke-opacity: 1; stroke-width: 0.95" transform="matrix(0.414674,0.962057,-0.962057,0.414674,36.722946,-10.560052)" />
        <path d="M 36.092833 9.827231 C 39.888639 12.802725 42.461435 17.273425 42.923793 22.344443 L 36.212151 22.344443 L 39.045955 20.517385 C 40.007957 19.894693 40.39947 18.682869 39.981856 17.616464 C 39.564243 16.550059 38.456822 15.923639 37.327029 16.117531 L 28.091065 17.717139 L 28.07615 17.71341 Z M 36.092833 9.827231 " style="fill: rgb(100%,52.156863%,41.568627%); fill-opacity: 1; fill-rule: evenodd; stroke: #6b7280; stroke-linecap: round; stroke-linejoin: round; stroke-miterlimit: 1.5; stroke-opacity: 1; stroke-width: 0.95" transform="matrix(1.04762,0,0,1.04762,-2.19048,-1.14286)" />
        <path d="M 13.616291 10.062138 L 21.577044 17.892387 C 19.906591 18.832017 18.661208 20.435353 18.198851 22.344443 L 7.076169 22.344443 C 7.527341 17.403929 9.980818 13.033904 13.616291 10.062138 Z M 13.616291 10.062138 " style="fill: none; stroke: #6b7280; stroke-linecap: round; stroke-linejoin: round; stroke-miterlimit: 1.5; stroke-opacity: 1; stroke-width: 0.95" transform="matrix(1.04762,0,0,1.04762,-2.19048,-1.14286)" />
        <path fill='#6b7280' d="M 13.616291 10.062138 C 16.718561 7.522901 20.682158 6.001595 24.999981 6.001595 C 29.183571 6.001595 33.035307 7.429683 36.092833 9.827231 L 28.07615 17.71341 C 27.147706 17.254781 26.103673 17.00123 24.999981 17.00123 C 23.758327 17.00123 22.587519 17.325626 21.577044 17.892387 Z M 13.616291 10.062138 " style="fill: none; stroke: #6b7280; stroke-linecap: round; stroke-linejoin: round; stroke-miterlimit: 1.5; stroke-opacity: 1; stroke-width: 0.95" transform="matrix(1.04762,0,0,1.04762,-2.19048,-1.14286)" />
    </g>
</svg>