<svg width="48" height="48" viewBox="0 0 48 48" fill="none" xmlns="http://www.w3.org/2000/svg">
    <path fill='#6b7280' d="M43.78516,30.97156a20.61019,20.61019,0,0,0-.00977-13.96991V17h-.00061A20.96578,20.96578,0,0,0,4.22522,17H4.22461v.00165a20.61019,20.61019,0,0,0-.00977,13.96991V31h.01044a20.9657,20.9657,0,0,0,39.54944,0h.01044ZM14.46124,30a39.25586,39.25586,0,0,1,0-12H33.53876A38.63716,38.63716,0,0,1,34,24a38.63731,38.63731,0,0,1-.46118,6Zm18.89423,1C31.93231,38.58081,28.28113,44,24,44s-7.93225-5.41919-9.35541-13ZM14.64465,17C16.06787,9.41937,19.71887,4,24,4s7.93219,5.41937,9.35541,13ZM20.10132,4.38757C17.09424,6.574,14.721,11.19879,13.64172,17H5.28906A20.05033,20.05033,0,0,1,20.10132,4.38757ZM4.92236,18h8.5409a39.0867,39.0867,0,0,0,0,12H4.9223a19.977,19.977,0,0,1,.00006-12ZM5.289,31h8.35278c1.07923,5.80115,3.45258,10.4259,6.45966,12.61243A20.04988,20.04988,0,0,1,5.289,31Z" />
    <path fill='#ff6c2c' d="M43.0777,30h-8.541A38.84845,38.84845,0,0,0,35,24a38.84786,38.84786,0,0,0-.46326-6h8.5409a19.977,19.977,0,0,1,.00006,12Z" />
    <path fill='#ff6c2c' d="M42.71094,17H34.35828c-1.07923-5.80121-3.45252-10.426-6.4596-12.61243A20.05033,20.05033,0,0,1,42.71094,17Z" />
    <path fill='#ff6c2c' d="M27.89856,43.61243C30.90564,41.4259,33.279,36.80115,34.35822,31H42.711A20.04988,20.04988,0,0,1,27.89856,43.61243Z" />
</svg>