<svg xmlns="http://www.w3.org/2000/svg" width="24" height="24" viewBox="5 10 38 28">
    <path fill='#6b7280' d="M41.499,38H6.5A1.50164,1.50164,0,0,1,5,36.5V14.5498a.5.5,0,1,1,1,0V36.5a.501.501,0,0,0,.5.5H41.499A.50138.50138,0,0,0,42,36.499V11.5a.501.501,0,0,0-.5-.5H13.72266a.5.5,0,1,1,0-1H41.5A1.50164,1.50164,0,0,1,43,11.5V36.499A1.50331,1.50331,0,0,1,41.499,38Z" />
    <path fill='#6b7280' d="M5.5,11a.40492.40492,0,0,1-.19043-.04.36482.36482,0,0,1-.16016-.11035A.34975.34975,0,0,1,5.04,10.68945.40093.40093,0,0,1,5,10.5a.4727.4727,0,0,1,.14941-.35059.50234.50234,0,0,1,.7002,0,.4827.4827,0,0,1,0,.7002.35936.35936,0,0,1-.16016.11035A.40093.40093,0,0,1,5.5,11Z" />
    <path fill='#6b7280' d="M8.24023,11a.40239.40239,0,0,1-.19043-.04.43017.43017,0,0,1-.16015-.11035.3497.3497,0,0,1-.10938-.16016.40093.40093,0,0,1-.04-.18945.47271.47271,0,0,1,.14942-.35059.50235.50235,0,0,1,.70019,0,.4827.4827,0,0,1,0,.7002.35938.35938,0,0,1-.16015.11035A.401.401,0,0,1,8.24023,11Z" />
    <path fill='#6b7280' d="M10.97949,11a.51411.51411,0,0,1-.5-.5.47365.47365,0,0,1,.15039-.35059A.34975.34975,0,0,1,10.79,10.04a.49153.49153,0,0,1,.54.10937.35491.35491,0,0,1,.10937.16016.4048.4048,0,0,1,.04.19043.51228.51228,0,0,1-.5.5Z" />
    <path fill="#ff6c2c" d="M33,29H17.5127a.5.5,0,1,1,0-1H33a.5.5,0,0,1,0,1Z" />
    <path fill="#ff6c2c" d="M12.5,28.5a.5.5,0,0,1-.35352-.85352L15.793,24l-3.64649-3.64648a.5.5,0,0,1,.707-.707l4,4a.49983.49983,0,0,1,0,.707l-4,4A.49842.49842,0,0,1,12.5,28.5Z" />
</svg>