
<svg
    width="48"
    height="48"
    viewBox="0 0 48 48"
    fill="none"
    xmlns="http://www.w3.org/2000/svg"
>
    <path fill='#6b7280' d="M24,28.5c7.62207,0,12.8584,1.68945,15.56543,5.02246a.4998.4998,0,1,0,.77539-.63086C37.43555,29.31445,31.9375,27.5,24,27.5c-10.916,0-17.30176,3.51172-18.4668,10.15625a2.23093,2.23093,0,0,0,.51856,1.8418A2.92568,2.92568,0,0,0,8.28223,40.5H21.71777a.5.5,0,0,0,0-1H8.28223a1.91749,1.91749,0,0,1-1.46485-.64551,1.247,1.247,0,0,1-.2998-1.02637C7.87012,30.11816,16.77051,28.5,24,28.5Z" />
    <path fill='#6b7280' d="M24,24.5A9.5,9.5,0,1,0,14.5,15,9.51081,9.51081,0,0,0,24,24.5Zm0-18A8.5,8.5,0,1,1,15.5,15,8.51014,8.51014,0,0,1,24,6.5Z" />
    <path
        fill="#ff6c2c"
        d="M28.86926,35.68018h-2.643L25,42h1.37439l.32605-1.68024h1.17725a4.20638,4.20638,0,0,0,1.28228-.164,2.42679,2.42679,0,0,0,.9148-.54974,2.747,2.747,0,0,0,.863-1.5481,1.97027,1.97027,0,0,0-.32886-1.75067A2.19309,2.19309,0,0,0,28.86926,35.68018Zm.648,2.28118a1.6667,1.6667,0,0,1-.54925,1.04743,2.0158,2.0158,0,0,1-1.2381.31366h-.83606l.51324-2.645h.94172a1.40455,1.40455,0,0,1,1.04419.28967A1.14919,1.14919,0,0,1,29.51727,37.96136Z"
    />
    <path
        fill="#ff6c2c"
        d="M34.79437,35.68018H33.57758L33.90411,34H32.53827l-1.22833,6.31976h1.36584l.70361-3.6206H34.471a.95951.95951,0,0,1,.6853.17364.75877.75877,0,0,1,.0683.65076l-.5434,2.7962h1.38758l.57147-2.94085a1.32535,1.32535,0,0,0-.26154-1.29816A2.36965,2.36965,0,0,0,34.79437,35.68018Z"
    />
    <path
        fill="#ff6c2c"
        d="M42.609,36.30725a2.19309,2.19309,0,0,0-1.73969-.62707H38.22632L37,42h1.37445l.32593-1.68024h1.17731a4.20569,4.20569,0,0,0,1.28222-.164,2.427,2.427,0,0,0,.91486-.54974,2.747,2.747,0,0,0,.863-1.5481A1.97027,1.97027,0,0,0,42.609,36.30725Zm-1.09168,1.65411a1.6667,1.6667,0,0,1-.54925,1.04743,2.016,2.016,0,0,1-1.23816.31366h-.83594l.51318-2.645h.94172a1.40434,1.40434,0,0,1,1.04412.28967A1.14871,1.14871,0,0,1,41.51727,37.96136Z"
    />
</svg>